<svg width="354" height="27" viewBox="0 0 354 27" fill="none" xmlns="http://www.w3.org/2000/svg">
<path d="M172.654 21.154C169.728 21.154 167.704 19.13 167.704 16.094C167.704 12.882 169.97 10.814 172.742 10.814C175.426 10.814 177.802 12.75 177.802 15.94C177.802 19.02 175.624 21.154 172.654 21.154ZM172.786 19.79C174.172 19.79 174.942 18.36 174.942 16.094C174.942 13.872 174.172 12.2 172.698 12.2C171.334 12.2 170.52 13.608 170.52 15.852C170.52 18.14 171.334 19.79 172.786 19.79ZM184.28 21H179.352V20.01C180.144 19.834 180.518 19.548 180.518 18.734V14.18C180.518 13.344 180.144 13.058 179.352 12.904V11.936L181.882 10.968H183.026V12.156C183.84 11.518 184.962 10.858 186.216 10.814V13.696H185.6L183.114 12.97V18.69C183.114 19.592 183.554 19.878 184.28 20.01V21Z" fill="black"/>
<rect x="196" y="15" width="158" height="1" fill="#D9D9D9"/>
<rect y="15" width="158" height="1" fill="#D9D9D9"/>
</svg>
