<svg width="88" height="15" viewBox="0 0 88 15" fill="none" xmlns="http://www.w3.org/2000/svg">
<path d="M0.6 6.56C0.6 3.725 2.535 1.775 5.355 1.775C6.51 1.775 7.41 2.075 8.235 2.45V4.565H7.515C7.305 3.5 6.66 2.66 5.34 2.66C3.66 2.66 2.595 4.205 2.595 6.41C2.595 8.765 3.735 10.28 5.37 10.28C6.78 10.28 7.395 9.455 7.545 8.21H8.265V10.46C7.575 10.79 6.435 11.165 5.22 11.165C2.475 11.165 0.6 9.335 0.6 6.56ZM15.3367 8.945C15.3367 9.515 15.5767 9.725 16.1467 9.83V10.49L14.6017 11.075H14.2717L13.7317 10.175C13.2367 10.7 12.5167 11.12 11.6017 11.12C10.4167 11.12 9.59168 10.4 9.59168 9.35C9.59168 8.06 10.7917 7.19 12.6517 7.19H13.5667V6.095C13.5667 5.36 13.1317 4.94 12.4417 4.94C11.7517 4.94 11.1967 5.315 10.9567 6.29H10.1917V4.655C10.9117 4.31 11.7217 4.07 12.6817 4.07C14.1967 4.07 15.3367 4.79 15.3367 6.485V8.945ZM12.6967 9.98C13.0567 9.98 13.3567 9.89 13.5667 9.77V7.895H12.9817C12.0817 7.895 11.4367 8.315 11.4367 9.005C11.4367 9.605 11.9167 9.98 12.6967 9.98ZM20.3941 11H17.0641V10.325C17.6041 10.205 17.8591 10.01 17.8591 9.455V6.35C17.8591 5.78 17.6041 5.585 17.0641 5.48V4.82L18.7891 4.16H19.5691V5.075C20.2741 4.505 21.0691 4.055 22.0441 4.055C23.4091 4.055 24.2041 5.03 24.2041 6.725V9.455C24.2041 10.01 24.4441 10.205 24.9991 10.325V11H21.6691V10.325C22.1791 10.235 22.4341 10.04 22.4341 9.425V7.025C22.4341 5.81 22.0141 5.345 21.0241 5.345C20.4991 5.345 20.0191 5.45 19.6291 5.63V9.425C19.6291 10.04 19.8991 10.235 20.3941 10.325V11ZM25.5163 1.94C25.5163 1.325 25.9663 0.859999 26.5963 0.859999C27.2863 0.859999 27.7063 1.4 27.7063 2.225C27.7063 3.185 27.1363 4.25 26.0263 5.09L25.6213 4.67C26.0713 4.265 26.4313 3.725 26.5213 3.005C25.9213 2.96 25.5163 2.555 25.5163 1.94ZM33.1447 9.845L33.3547 10.475C32.8747 10.805 32.0647 11.105 31.3297 11.105C30.0697 11.105 29.3497 10.295 29.3497 9.035V5.06H28.6597V4.34C29.4697 4.085 30.0697 3.515 30.2947 2.66H31.1197V4.16H33.0697V5.06H31.1197V8.795C31.1197 9.515 31.4797 10.025 32.2297 10.025C32.5447 10.025 32.8747 9.95 33.1447 9.845ZM39.7794 11.105C38.7744 11.105 38.0694 10.865 37.5744 10.595V8.825H38.3544C38.5194 9.785 38.9994 10.25 39.9294 10.25C40.6044 10.25 41.0394 9.92 41.0394 9.275C41.0394 7.985 37.5444 8.33 37.5444 6.17C37.5444 4.85 38.6244 4.055 40.2294 4.055C41.0994 4.055 41.7294 4.235 42.2994 4.505V6.11H41.5194C41.3994 5.3 40.8894 4.925 40.1844 4.925C39.5694 4.925 39.1794 5.27 39.1794 5.795C39.1794 7.1 42.7194 6.725 42.7194 8.87C42.7194 10.22 41.5944 11.105 39.7794 11.105ZM44.2189 2.18C44.2189 1.61 44.6989 1.145 45.3139 1.145C45.9289 1.145 46.4089 1.61 46.4089 2.18C46.4089 2.795 45.9289 3.26 45.3139 3.26C44.6989 3.26 44.2189 2.795 44.2189 2.18ZM47.0989 11H43.7389V10.325C44.3089 10.205 44.5339 9.995 44.5339 9.425V6.35C44.5339 5.78 44.2789 5.585 43.7389 5.48V4.82L45.5389 4.16H46.3039V9.455C46.3039 10.01 46.5589 10.205 47.0989 10.325V11ZM51.0295 8.495C50.6095 8.495 50.2195 8.45 49.8745 8.345C49.7245 8.525 49.6645 8.72 49.6645 8.945C49.6645 10.355 54.5995 8.66 54.5995 11.42C54.5995 12.965 52.9645 14.09 50.8045 14.09C48.8545 14.09 47.7745 13.415 47.7745 12.335C47.7745 11.63 48.3445 11.135 49.0195 10.73C48.6295 10.565 48.3745 10.265 48.3745 9.755C48.3745 9.02 48.8695 8.57 49.5145 8.21C48.7345 7.865 48.2695 7.205 48.2695 6.35C48.2995 5.015 49.4395 4.055 50.9395 4.055C51.7945 4.055 52.4845 4.25 52.9795 4.595C53.5195 4.28 54.2095 3.875 54.7795 3.83V5.12H54.5695L53.4295 5.03C53.6845 5.36 53.8195 5.75 53.8195 6.2C53.8195 7.49 52.6945 8.495 51.0295 8.495ZM52.0945 6.32C52.0945 5.495 51.7045 4.82 50.9845 4.82C50.2495 4.82 49.9495 5.51 49.9495 6.215C49.9495 7.04 50.3095 7.73 51.0595 7.73C51.7945 7.73 52.0945 7.055 52.0945 6.32ZM49.1545 11.81C49.1545 12.605 49.7395 13.205 51.0895 13.205C52.1845 13.205 53.0395 12.83 53.0395 11.975C53.0395 10.73 50.8495 11.18 49.4695 10.88C49.2745 11.165 49.1545 11.45 49.1545 11.81ZM58.9342 11H55.6042V10.325C56.1442 10.205 56.3992 10.01 56.3992 9.455V6.35C56.3992 5.78 56.1442 5.585 55.6042 5.48V4.82L57.3292 4.16H58.1092V5.075C58.8142 4.505 59.6092 4.055 60.5842 4.055C61.9492 4.055 62.7442 5.03 62.7442 6.725V9.455C62.7442 10.01 62.9842 10.205 63.5392 10.325V11H60.2092V10.325C60.7192 10.235 60.9742 10.04 60.9742 9.425V7.025C60.9742 5.81 60.5542 5.345 59.5642 5.345C59.0392 5.345 58.5592 5.45 58.1692 5.63V9.425C58.1692 10.04 58.4392 10.235 58.9342 10.325V11ZM68.3449 2.18C68.3449 1.61 68.8249 1.145 69.4399 1.145C70.0549 1.145 70.5349 1.61 70.5349 2.18C70.5349 2.795 70.0549 3.26 69.4399 3.26C68.8249 3.26 68.3449 2.795 68.3449 2.18ZM71.2249 11H67.8649V10.325C68.4349 10.205 68.6599 9.995 68.6599 9.425V6.35C68.6599 5.78 68.4049 5.585 67.8649 5.48V4.82L69.6649 4.16H70.4299V9.455C70.4299 10.01 70.6849 10.205 71.2249 10.325V11ZM75.5455 11H72.2155V10.325C72.7555 10.205 73.0105 10.01 73.0105 9.455V6.35C73.0105 5.78 72.7555 5.585 72.2155 5.48V4.82L73.9405 4.16H74.7205V5.075C75.4255 4.505 76.2205 4.055 77.1955 4.055C78.5605 4.055 79.3555 5.03 79.3555 6.725V9.455C79.3555 10.01 79.5955 10.205 80.1505 10.325V11H76.8205V10.325C77.3305 10.235 77.5855 10.04 77.5855 9.425V7.025C77.5855 5.81 77.1655 5.345 76.1755 5.345C75.6505 5.345 75.1705 5.45 74.7805 5.63V9.425C74.7805 10.04 75.0505 10.235 75.5455 10.325V11ZM83.7318 2.69C82.6668 2.69 82.2318 3.35 81.9318 4.4H81.1518V2.45C81.9018 2 82.7118 1.76 83.8818 1.76C85.7118 1.76 87.0168 2.645 87.0168 4.01C87.0168 5.405 85.9068 6.32 84.2118 6.635L83.9868 8.03H82.8168L82.6668 5.99C84.1968 5.78 85.1118 5.39 85.1118 4.07C85.1118 3.155 84.4818 2.69 83.7318 2.69ZM83.3568 11.09C82.6968 11.09 82.2318 10.595 82.2318 9.98C82.2318 9.395 82.6968 8.885 83.3568 8.885C84.0018 8.885 84.4818 9.395 84.4818 9.98C84.4818 10.595 84.0018 11.09 83.3568 11.09Z" fill="url(#paint0_linear_58_305)"/>
<defs>
<linearGradient id="paint0_linear_58_305" x1="-1.25176e-07" y1="7.49999" x2="88" y2="6.99999" gradientUnits="userSpaceOnUse">
<stop stop-color="#C57AA3"/>
<stop offset="1" stop-color="#635DA1"/>
</linearGradient>
</defs>
</svg>
