<svg width="358" height="52" viewBox="0 0 358 52" fill="none" xmlns="http://www.w3.org/2000/svg">
<rect width="358" height="52" rx="10" fill="#F07D67"/>
<path d="M145.3 21.3C145.3 24.5 152.625 23.525 152.625 28.525C152.625 31.65 149.95 33.275 146.675 33.275C144.7 33.275 143.05 32.775 142.1 32.3V28.4H143.3C143.6 30.475 144.775 31.775 146.725 31.775C148.35 31.775 149.45 30.875 149.45 29.35C149.45 25.725 142.125 27 142.125 22.125C142.125 19.225 144.6 17.625 147.45 17.625C149.35 17.625 150.6 18.05 151.75 18.6V21.9H150.55C150.3 20.25 149.325 19.1 147.675 19.1C146.1 19.1 145.3 20.05 145.3 21.3ZM155.104 18.3C155.104 17.35 155.904 16.575 156.929 16.575C157.954 16.575 158.754 17.35 158.754 18.3C158.754 19.325 157.954 20.1 156.929 20.1C155.904 20.1 155.104 19.325 155.104 18.3ZM159.904 33H154.304V31.875C155.254 31.675 155.629 31.325 155.629 30.375V25.25C155.629 24.3 155.204 23.975 154.304 23.8V22.7L157.304 21.6H158.579V30.425C158.579 31.35 159.004 31.675 159.904 31.875V33ZM166.454 28.825C165.754 28.825 165.104 28.75 164.529 28.575C164.279 28.875 164.179 29.2 164.179 29.575C164.179 31.925 172.404 29.1 172.404 33.7C172.404 36.275 169.679 38.15 166.079 38.15C162.829 38.15 161.029 37.025 161.029 35.225C161.029 34.05 161.979 33.225 163.104 32.55C162.454 32.275 162.029 31.775 162.029 30.925C162.029 29.7 162.854 28.95 163.929 28.35C162.629 27.775 161.854 26.675 161.854 25.25C161.904 23.025 163.804 21.425 166.304 21.425C167.729 21.425 168.879 21.75 169.704 22.325C170.604 21.8 171.754 21.125 172.704 21.05V23.2H172.354L170.454 23.05C170.879 23.6 171.104 24.25 171.104 25C171.104 27.15 169.229 28.825 166.454 28.825ZM168.229 25.2C168.229 23.825 167.579 22.7 166.379 22.7C165.154 22.7 164.654 23.85 164.654 25.025C164.654 26.4 165.254 27.55 166.504 27.55C167.729 27.55 168.229 26.425 168.229 25.2ZM163.329 34.35C163.329 35.675 164.304 36.675 166.554 36.675C168.379 36.675 169.804 36.05 169.804 34.625C169.804 32.55 166.154 33.3 163.854 32.8C163.529 33.275 163.329 33.75 163.329 34.35ZM179.629 33H174.079V31.875C174.979 31.675 175.404 31.35 175.404 30.425V25.25C175.404 24.3 174.979 23.975 174.079 23.8V22.7L176.954 21.6H178.254V23.125C179.429 22.175 180.754 21.425 182.379 21.425C184.654 21.425 185.979 23.05 185.979 25.875V30.425C185.979 31.35 186.379 31.675 187.304 31.875V33H181.754V31.875C182.604 31.725 183.029 31.4 183.029 30.375V26.375C183.029 24.35 182.329 23.575 180.679 23.575C179.804 23.575 179.004 23.75 178.354 24.05V30.375C178.354 31.4 178.804 31.725 179.629 31.875V33ZM195.313 18.3C195.313 17.35 196.113 16.575 197.138 16.575C198.163 16.575 198.963 17.35 198.963 18.3C198.963 19.325 198.163 20.1 197.138 20.1C196.113 20.1 195.313 19.325 195.313 18.3ZM200.113 33H194.513V31.875C195.463 31.675 195.838 31.325 195.838 30.375V25.25C195.838 24.3 195.413 23.975 194.513 23.8V22.7L197.513 21.6H198.788V30.425C198.788 31.35 199.213 31.675 200.113 31.875V33ZM207.314 33H201.764V31.875C202.664 31.675 203.089 31.35 203.089 30.425V25.25C203.089 24.3 202.664 23.975 201.764 23.8V22.7L204.639 21.6H205.939V23.125C207.114 22.175 208.439 21.425 210.064 21.425C212.339 21.425 213.664 23.05 213.664 25.875V30.425C213.664 31.35 214.064 31.675 214.989 31.875V33H209.439V31.875C210.289 31.725 210.714 31.4 210.714 30.375V26.375C210.714 24.35 210.014 23.575 208.364 23.575C207.489 23.575 206.689 23.75 206.039 24.05V30.375C206.039 31.4 206.489 31.725 207.314 31.875V33Z" fill="#FEFCFB"/>
</svg>
