<svg width="50" height="15" viewBox="0 0 50 15" fill="none" xmlns="http://www.w3.org/2000/svg">
<path d="M2.955 3.965C2.955 5.69 7.29 5.27 7.29 8.255C7.29 10.19 5.52 11.18 3.48 11.18C2.235 11.18 1.14 10.865 0.585 10.58V8.06H1.485C1.68 9.275 2.385 10.115 3.465 10.115C4.29 10.115 4.845 9.635 4.845 8.855C4.845 6.875 0.525 7.565 0.525 4.61C0.525 2.72 2.22 1.76 4.005 1.76C5.175 1.76 5.985 2.03 6.69 2.375V4.46H5.79C5.64 3.56 5.16 2.795 4.2 2.795C3.33 2.795 2.955 3.365 2.955 3.965ZM8.56289 2.105C8.56289 1.415 9.14789 0.859999 9.89789 0.859999C10.6329 0.859999 11.2029 1.415 11.2029 2.105C11.2029 2.825 10.6329 3.38 9.89789 3.38C9.14789 3.38 8.56289 2.825 8.56289 2.105ZM11.9229 11H8.03789V10.175C8.63789 10.025 8.86289 9.77 8.86289 9.17V6.635C8.86289 6.05 8.60789 5.81 8.03789 5.69V4.865L10.1529 4.1H11.0979V9.215C11.0979 9.8 11.3529 10.04 11.9229 10.175V11ZM15.8325 8.465C15.3975 8.465 14.9925 8.42 14.6325 8.33C14.5725 8.45 14.5575 8.585 14.5575 8.735C14.5575 10.085 19.6275 8.39 19.6275 11.285C19.6275 12.965 17.7975 14.09 15.5925 14.09C13.3725 14.09 12.3375 13.355 12.3375 12.32C12.3375 11.615 12.9225 11.12 13.6125 10.76C13.2075 10.565 12.9525 10.265 12.9525 9.74C12.9525 8.96 13.4625 8.525 14.1825 8.165C13.3575 7.82 12.8775 7.16 12.8925 6.305C12.9225 4.97 14.0925 3.995 15.7425 3.995C16.6875 3.995 17.4225 4.19 17.9475 4.535C18.5025 4.19 19.2375 3.77 19.8075 3.755V5.195H19.5975L18.5175 5.09C18.7425 5.405 18.8475 5.765 18.8475 6.17C18.8475 7.385 17.6925 8.465 15.8325 8.465ZM16.6725 6.26C16.6725 5.54 16.4175 4.895 15.7875 4.895C15.1275 4.895 14.9775 5.585 14.9775 6.17C14.9775 6.89 15.2025 7.535 15.8475 7.535C16.5375 7.535 16.6725 6.86 16.6725 6.26ZM14.0175 11.675C14.0175 12.455 14.5575 13.025 15.9225 13.025C16.9725 13.025 17.6925 12.71 17.6925 11.945C17.6925 10.835 15.6075 11.21 14.2125 10.94C14.0775 11.18 14.0175 11.405 14.0175 11.675ZM24.3291 11H20.4891V10.175C21.0591 10.04 21.3141 9.8 21.3141 9.215V6.635C21.3141 6.05 21.0591 5.81 20.4891 5.69V4.865L22.5141 4.1H23.4741V5.03C24.2091 4.43 25.0041 3.995 25.9041 3.995C27.2841 3.995 28.1541 4.985 28.1541 6.77V9.215C28.1541 9.8 28.4091 10.04 28.9791 10.175V11H25.1391V10.175C25.6641 10.085 25.9191 9.83 25.9191 9.185V7.16C25.9191 6.005 25.5891 5.555 24.5841 5.555C24.2091 5.555 23.8641 5.615 23.5491 5.705V9.185C23.5491 9.83 23.8191 10.085 24.3291 10.175V11ZM33.5671 6.635C33.5671 5.99 33.2971 5.825 32.7421 5.69V4.865L34.7671 4.1H35.8021V7.955C35.8021 9.125 36.1321 9.545 37.1521 9.545C37.4371 9.545 37.7371 9.515 38.0221 9.44V6.605C38.0221 6.02 37.7221 5.795 37.1971 5.69V4.865L39.2221 4.1H40.2571V8.63C40.2571 9.23 40.5121 9.485 41.0821 9.605V10.43L39.2971 11.105H38.8471L38.2021 10.115C37.4821 10.685 36.7021 11.12 35.8021 11.12C34.4371 11.12 33.5671 10.13 33.5671 8.345V6.635ZM45.5229 14H41.6379V13.175C42.2079 13.04 42.4629 12.8 42.4629 12.215V6.635C42.4629 6.05 42.2079 5.81 41.6379 5.69V4.865L43.6629 4.1H44.6229V4.76C45.1779 4.37 45.8979 3.995 46.7379 3.995C48.3879 3.995 49.5129 5.435 49.5129 7.37C49.5129 9.68 47.8929 11.12 45.4779 11.12C45.1779 11.12 44.9229 11.105 44.6979 11.06V12.17C44.6979 12.755 44.9379 13.07 45.5229 13.175V14ZM45.3579 5.33C45.1779 5.33 44.9379 5.36 44.6979 5.405V10.025C44.8779 10.055 45.0579 10.085 45.2379 10.085C46.3779 10.085 47.1429 9.155 47.1429 7.715C47.1429 6.32 46.4229 5.33 45.3579 5.33Z" fill="url(#paint0_linear_58_314)"/>
<defs>
<linearGradient id="paint0_linear_58_314" x1="47.0339" y1="15" x2="1.09232e-06" y2="15" gradientUnits="userSpaceOnUse">
<stop stop-color="#F18EA6"/>
<stop offset="1" stop-color="#F07D67"/>
</linearGradient>
</defs>
</svg>
