<svg width="358" height="64" viewBox="0 0 358 64" fill="none" xmlns="http://www.w3.org/2000/svg">
<rect x="1.5" y="11.5" width="355" height="51" rx="8.5" stroke="url(#paint0_linear_58_313)" stroke-width="3"/>
<rect x="19" y="4" width="41" height="14" fill="#FEFCFB"/>
<path d="M27.3 13.59L27.555 14.265C27.015 14.625 26.115 15.105 24.9 15.105C22.95 15.105 21.48 13.725 21.48 11.685C21.48 9.615 22.905 8.055 24.87 8.055C26.76 8.055 27.795 9.63 27.795 11.61H23.385C23.505 13.065 24.33 13.95 25.56 13.95C26.1 13.95 26.835 13.755 27.3 13.59ZM24.81 9C23.925 9 23.49 9.87 23.385 10.815L26.1 10.695C26.085 9.825 25.68 9 24.81 9ZM32.1213 15H28.8063V14.325C29.3463 14.205 29.6013 14.01 29.6013 13.455V10.35C29.6013 9.78 29.3463 9.585 28.8063 9.48V8.82L30.5313 8.16H31.3113V9.03C31.9563 8.52 32.7663 8.055 33.6513 8.055C34.4913 8.055 35.1063 8.415 35.4663 9.075C36.1263 8.58 37.0713 8.055 38.0763 8.055C39.4713 8.055 40.2363 9.03 40.2363 10.725V13.455C40.2363 14.01 40.4913 14.22 41.0313 14.325V15H37.7163V14.325C38.2263 14.235 38.4663 14.04 38.4663 13.425V11.025C38.4663 9.825 38.0763 9.345 37.1313 9.345C36.5313 9.345 36.0513 9.465 35.6763 9.645C35.7663 9.96 35.8113 10.32 35.8113 10.725V13.455C35.8113 14.01 36.0213 14.205 36.5613 14.325V15H33.2913V14.325C33.8013 14.235 34.0413 14.04 34.0413 13.425V11.025C34.0413 9.825 33.6513 9.345 32.6913 9.345C32.1513 9.345 31.7313 9.465 31.3713 9.615V13.425C31.3713 14.04 31.6263 14.235 32.1213 14.325V15ZM47.6746 12.945C47.6746 13.515 47.9146 13.725 48.4846 13.83V14.49L46.9396 15.075H46.6096L46.0696 14.175C45.5746 14.7 44.8546 15.12 43.9396 15.12C42.7546 15.12 41.9296 14.4 41.9296 13.35C41.9296 12.06 43.1296 11.19 44.9896 11.19H45.9046V10.095C45.9046 9.36 45.4696 8.94 44.7796 8.94C44.0896 8.94 43.5346 9.315 43.2946 10.29H42.5296V8.655C43.2496 8.31 44.0596 8.07 45.0196 8.07C46.5346 8.07 47.6746 8.79 47.6746 10.485V12.945ZM45.0346 13.98C45.3946 13.98 45.6946 13.89 45.9046 13.77V11.895H45.3196C44.4196 11.895 43.7746 12.315 43.7746 13.005C43.7746 13.605 44.2546 13.98 45.0346 13.98ZM49.882 6.18C49.882 5.61 50.362 5.145 50.977 5.145C51.592 5.145 52.072 5.61 52.072 6.18C52.072 6.795 51.592 7.26 50.977 7.26C50.362 7.26 49.882 6.795 49.882 6.18ZM52.762 15H49.402V14.325C49.972 14.205 50.197 13.995 50.197 13.425V10.35C50.197 9.78 49.942 9.585 49.402 9.48V8.82L51.202 8.16H51.967V13.455C51.967 14.01 52.222 14.205 52.762 14.325V15ZM57.0676 15H53.7076V14.325C54.2476 14.205 54.5026 14.01 54.5026 13.455V6.825C54.5026 6.255 54.2476 6.06 53.7076 5.955V5.295L55.4776 4.71H56.2726V13.455C56.2726 14.01 56.5126 14.205 57.0676 14.325V15Z" fill="#F07D67"/>
<defs>
<linearGradient id="paint0_linear_58_313" x1="358" y1="37" x2="2.61924e-06" y2="37" gradientUnits="userSpaceOnUse">
<stop stop-color="#F6ADBF"/>
<stop offset="1" stop-color="#F07D67"/>
</linearGradient>
</defs>
</svg>
