<svg width="358" height="64" viewBox="0 0 358 64" fill="none" xmlns="http://www.w3.org/2000/svg">
<rect x="1.5" y="11.5" width="355" height="51" rx="8.5" stroke="url(#paint0_linear_58_319)" stroke-width="3"/>
<rect x="21" y="4" width="42" height="14" fill="#FEFCFB"/>
<path d="M27.9 15H24.57V14.325C25.11 14.205 25.365 14.01 25.365 13.455V10.35C25.365 9.78 25.11 9.585 24.57 9.48V8.82L26.295 8.16H27.075V9.075C27.78 8.505 28.575 8.055 29.55 8.055C30.915 8.055 31.71 9.03 31.71 10.725V13.455C31.71 14.01 31.95 14.205 32.505 14.325V15H29.175V14.325C29.685 14.235 29.94 14.04 29.94 13.425V11.025C29.94 9.81 29.52 9.345 28.53 9.345C28.005 9.345 27.525 9.45 27.135 9.63V13.425C27.135 14.04 27.405 14.235 27.9 14.325V15ZM39.1463 12.945C39.1463 13.515 39.3863 13.725 39.9563 13.83V14.49L38.4113 15.075H38.0813L37.5413 14.175C37.0463 14.7 36.3263 15.12 35.4113 15.12C34.2263 15.12 33.4012 14.4 33.4012 13.35C33.4012 12.06 34.6013 11.19 36.4613 11.19H37.3763V10.095C37.3763 9.36 36.9413 8.94 36.2513 8.94C35.5613 8.94 35.0063 9.315 34.7663 10.29H34.0013V8.655C34.7213 8.31 35.5313 8.07 36.4913 8.07C38.0063 8.07 39.1463 8.79 39.1463 10.485V12.945ZM36.5063 13.98C36.8662 13.98 37.1663 13.89 37.3763 13.77V11.895H36.7913C35.8913 11.895 35.2463 12.315 35.2463 13.005C35.2463 13.605 35.7263 13.98 36.5063 13.98ZM44.1887 15H40.8737V14.325C41.4137 14.205 41.6687 14.01 41.6687 13.455V10.35C41.6687 9.78 41.4137 9.585 40.8737 9.48V8.82L42.5987 8.16H43.3787V9.03C44.0237 8.52 44.8337 8.055 45.7187 8.055C46.5587 8.055 47.1737 8.415 47.5337 9.075C48.1937 8.58 49.1387 8.055 50.1437 8.055C51.5387 8.055 52.3037 9.03 52.3037 10.725V13.455C52.3037 14.01 52.5587 14.22 53.0987 14.325V15H49.7837V14.325C50.2937 14.235 50.5337 14.04 50.5337 13.425V11.025C50.5337 9.825 50.1437 9.345 49.1987 9.345C48.5987 9.345 48.1187 9.465 47.7437 9.645C47.8337 9.96 47.8787 10.32 47.8787 10.725V13.455C47.8787 14.01 48.0887 14.205 48.6287 14.325V15H45.3587V14.325C45.8687 14.235 46.1087 14.04 46.1087 13.425V11.025C46.1087 9.825 45.7187 9.345 44.7587 9.345C44.2187 9.345 43.7987 9.465 43.4387 9.615V13.425C43.4387 14.04 43.6937 14.235 44.1887 14.325V15ZM59.7287 13.59L59.9837 14.265C59.4437 14.625 58.5437 15.105 57.3287 15.105C55.3787 15.105 53.9087 13.725 53.9087 11.685C53.9087 9.615 55.3337 8.055 57.2987 8.055C59.1887 8.055 60.2237 9.63 60.2237 11.61H55.8137C55.9337 13.065 56.7587 13.95 57.9887 13.95C58.5287 13.95 59.2637 13.755 59.7287 13.59ZM57.2387 9C56.3537 9 55.9187 9.87 55.8137 10.815L58.5287 10.695C58.5137 9.825 58.1087 9 57.2387 9Z" fill="#F07D67"/>
<defs>
<linearGradient id="paint0_linear_58_319" x1="358" y1="37" x2="2.61924e-06" y2="37" gradientUnits="userSpaceOnUse">
<stop stop-color="#F6ADBF"/>
<stop offset="1" stop-color="#F07D67"/>
</linearGradient>
</defs>
</svg>
