<svg width="358" height="65" viewBox="0 0 358 65" fill="none" xmlns="http://www.w3.org/2000/svg">
<rect x="1.5" y="12.5" width="355" height="51" rx="8.5" stroke="url(#paint0_linear_58_312)" stroke-width="3"/>
<rect x="19" y="7" width="64" height="13" fill="#FEFCFB"/>
<path d="M23.81 18H20.45V17.325C20.99 17.205 21.245 17.01 21.245 16.455V10.35C21.245 9.78 20.99 9.585 20.45 9.48V8.82L22.175 8.16H22.94V8.82C23.495 8.445 24.2 8.055 25.04 8.055C26.69 8.055 27.815 9.42 27.815 11.385C27.815 13.695 26.285 15.12 24.005 15.12C23.63 15.12 23.285 15.075 23.015 15.03V16.425C23.015 16.98 23.255 17.235 23.81 17.325V18ZM23.99 9.15C23.69 9.15 23.33 9.225 23.015 9.33V14.145C23.27 14.205 23.54 14.25 23.825 14.25C25.085 14.25 25.94 13.275 25.94 11.655C25.94 10.14 25.16 9.15 23.99 9.15ZM34.531 12.945C34.531 13.515 34.771 13.725 35.341 13.83V14.49L33.796 15.075H33.466L32.926 14.175C32.431 14.7 31.711 15.12 30.796 15.12C29.611 15.12 28.786 14.4 28.786 13.35C28.786 12.06 29.986 11.19 31.846 11.19H32.761V10.095C32.761 9.36 32.326 8.94 31.636 8.94C30.946 8.94 30.391 9.315 30.151 10.29H29.386V8.655C30.106 8.31 30.916 8.07 31.876 8.07C33.391 8.07 34.531 8.79 34.531 10.485V12.945ZM31.891 13.98C32.251 13.98 32.551 13.89 32.761 13.77V11.895H32.176C31.276 11.895 30.631 12.315 30.631 13.005C30.631 13.605 31.111 13.98 31.891 13.98ZM38.5685 15.105C37.5635 15.105 36.8585 14.865 36.3635 14.595V12.825H37.1435C37.3085 13.785 37.7885 14.25 38.7185 14.25C39.3935 14.25 39.8285 13.92 39.8285 13.275C39.8285 11.985 36.3335 12.33 36.3335 10.17C36.3335 8.85 37.4135 8.055 39.0185 8.055C39.8885 8.055 40.5185 8.235 41.0885 8.505V10.11H40.3085C40.1885 9.3 39.6785 8.925 38.9735 8.925C38.3585 8.925 37.9685 9.27 37.9685 9.795C37.9685 11.1 41.5085 10.725 41.5085 12.87C41.5085 14.22 40.3835 15.105 38.5685 15.105ZM44.838 15.105C43.833 15.105 43.128 14.865 42.633 14.595V12.825H43.413C43.578 13.785 44.058 14.25 44.988 14.25C45.663 14.25 46.098 13.92 46.098 13.275C46.098 11.985 42.603 12.33 42.603 10.17C42.603 8.85 43.683 8.055 45.288 8.055C46.158 8.055 46.788 8.235 47.358 8.505V10.11H46.578C46.458 9.3 45.948 8.925 45.243 8.925C44.628 8.925 44.238 9.27 44.238 9.795C44.238 11.1 47.778 10.725 47.778 12.87C47.778 14.22 46.653 15.105 44.838 15.105ZM57.2275 8.835V8.16H59.7775V8.835C59.3725 8.97 59.1775 9.225 59.0125 9.705L57.2725 15H55.5025L54.1225 10.635L52.7425 15H50.9875L49.1425 9.705C48.9775 9.21 48.8425 9.015 48.4225 8.835V8.16H51.7225V8.835C51.1225 8.94 50.9575 9.21 51.0775 9.675L52.1425 13.53L53.8075 8.205H55.1425L56.7325 13.545L57.8575 9.675C57.9925 9.18 57.8125 8.925 57.2275 8.835ZM63.6987 15.105C61.7038 15.105 60.3238 13.725 60.3238 11.655C60.3238 9.465 61.8688 8.055 63.7588 8.055C65.5888 8.055 67.2088 9.375 67.2088 11.55C67.2088 13.65 65.7238 15.105 63.6987 15.105ZM63.7888 14.175C64.7338 14.175 65.2588 13.2 65.2588 11.655C65.2588 10.14 64.7338 9 63.7288 9C62.7988 9 62.2438 9.96 62.2438 11.49C62.2438 13.05 62.7988 14.175 63.7888 14.175ZM71.6253 15H68.2653V14.325C68.8053 14.205 69.0603 14.01 69.0603 13.455V10.35C69.0603 9.78 68.8053 9.585 68.2653 9.48V8.82L69.9903 8.16H70.7703V8.97C71.3253 8.535 72.0903 8.085 72.9453 8.055V10.02H72.5253L70.8303 9.525V13.425C70.8303 14.04 71.1303 14.235 71.6253 14.325V15ZM80.3717 12.945C80.3717 13.515 80.6117 13.725 81.1817 13.83V14.49L79.6667 15.075H79.3217L78.7367 14.145C78.2417 14.745 77.5367 15.105 76.6367 15.105C74.9117 15.105 73.7417 13.785 73.7417 11.835C73.7417 9.585 75.1967 8.055 77.3417 8.055C77.8217 8.055 78.2267 8.145 78.6017 8.295V6.915C78.6017 6.36 78.3467 6.165 77.8067 6.06V5.385L79.5917 4.71H80.3717V12.945ZM75.6317 11.43C75.6317 12.915 76.4267 13.905 77.6267 13.905C77.9417 13.905 78.2867 13.83 78.6017 13.695V9C78.2867 8.925 77.9867 8.895 77.7167 8.895C76.4717 8.895 75.6317 9.915 75.6317 11.43Z" fill="#F07D67"/>
<defs>
<linearGradient id="paint0_linear_58_312" x1="358" y1="38" x2="2.61924e-06" y2="38" gradientUnits="userSpaceOnUse">
<stop stop-color="#F6ADBF"/>
<stop offset="1" stop-color="#F07D67"/>
</linearGradient>
</defs>
</svg>
